<?xml version="1.0" encoding="UTF-8" standalone="no"?>
<svg
   width="200px"
   height="40px"
   viewBox="0 0 200 40"
   version="1.1"
   id="svg2"
   sodipodi:docname="logo_on.svg"
   inkscape:version="1.3 (0e150ed6c4, 2023-07-21)"
   xmlns:inkscape="http://www.inkscape.org/namespaces/inkscape"
   xmlns:sodipodi="http://sodipodi.sourceforge.net/DTD/sodipodi-0.dtd"
   xmlns="http://www.w3.org/2000/svg"
   xmlns:svg="http://www.w3.org/2000/svg">
  <defs
     id="defs2" />
  <sodipodi:namedview
     id="namedview2"
     pagecolor="#ffffff"
     bordercolor="#000000"
     borderopacity="0.25"
     inkscape:showpageshadow="2"
     inkscape:pageopacity="0.0"
     inkscape:pagecheckerboard="0"
     inkscape:deskcolor="#d1d1d1"
     inkscape:zoom="1.965"
     inkscape:cx="100"
     inkscape:cy="20.101781"
     inkscape:window-width="1280"
     inkscape:window-height="961"
     inkscape:window-x="3192"
     inkscape:window-y="47"
     inkscape:window-maximized="1"
     inkscape:current-layer="Group" />
  <g
     id="Group"
     inkscape:label="logon">
    <path
       d="M190.089 3.75875L191.297 3.75875L191.179 35.0716C191.101 36.5611 191.456 37.1521 191.808 37.3398L194.147 39.2214C195.15 40.3277 195.786 39.9333 196.571 39.0892L198.561 37.6652C198.814 37.4364 200.439 36.3434 199.886 36.5745C199.246 36.8388 199.196 36.1335 199.218 35.6637L199.336 4.98945C199.194 4.15084 199.054 3.75875 198.273 2.91458L194.729 0L190.089 3.75875L190.089 3.75875Z"
       id="l"
       fill="#D3D3D3"
       fill-rule="evenodd"
       stroke="none" />
    <path
       d="M169.27 15.7704C167.77 17.3265 168.259 18.364 170.252 16.9944C173.612 15.1139 177.379 15.4383 178.227 17.833L178.205 21.9783C172.028 20.2344 166.253 22.5026 166.796 27.5442L166.785 32.3471C166.913 35.0006 167.849 35.3216 168.549 36.0936L172.591 39.2059C173.373 40.0489 174.231 40.1156 175.155 39.2714L178.225 36.6778L181.415 39.2714C181.987 40.2511 182.978 40.2511 184.261 39.2059L187.536 36.358L186.34 36.2258L186.396 19.6546C186.236 10.6365 175.837 10.1956 169.27 15.7704L169.27 15.7704ZM178.273 24.8296L178.238 34.222C177.95 35.3872 174.466 33.7644 174.48 30.2L174.491 26.9045C175.358 24.1721 177.848 23.991 178.273 24.8296L178.273 24.8296Z"
       id="a"
       fill="#D3D3D3"
       fill-rule="evenodd"
       stroke="none" />
    <path
       d="M152.858 3.88203L153.994 3.88203L153.962 13.6743L152.962 12.7635C152.895 12.7024 152.252 12.3725 151.684 12.7024L144.548 17.6252C143.119 18.5916 142.477 19.4402 142.616 20.1522L142.567 32.4458C142.638 33.8698 143.202 34.8539 143.981 35.5659L148.666 39.1902C149.515 39.9022 150.294 39.9022 151.009 39.1258L153.869 36.3979L157.201 39.1258C157.701 39.9578 158.551 40.0289 159.626 39.1258L163.265 36.2779L161.916 36.4645L162.034 5.18271C162.102 4.33522 161.894 3.88315 161.33 3.17116L157.57 0L152.858 3.88203L152.858 3.88203ZM150.593 18.3372C152.079 19.6946 153.568 21.1174 153.993 22.7358L153.947 33.8698C153.796 35.6192 150.464 33.3578 150.546 30.9019L150.593 18.3372L150.593 18.3372Z"
       id="d"
       fill="#D3D3D3"
       fill-rule="evenodd"
       stroke="none" />
    <path
       d="M120.102 21.3932L121.109 21.3932L121.067 31.431C120.916 33.1271 121.412 34.2178 122.197 34.6044L127.715 39.2661C128.571 39.8526 129.357 39.7904 129.936 39.2006L137.072 32.9149C138.286 32.0219 137.507 31.231 136.572 32.2685C134.864 33.4448 133.078 34.1434 131.092 33.126L129.671 31.5643C129.036 30.7845 129.11 30.0725 129.9 29.1617L135.752 23.7347C137.892 21.7842 139.117 19.6482 137.061 17.0447L132.728 12.9072C132.094 12.0008 131.457 11.8797 130.528 12.5251L120.102 21.3932L120.102 21.3932ZM129.222 19.0662C130.936 20.1037 132.343 21.0733 132.275 23.0838C131.83 25.6707 130.758 26.9625 129.201 27.0269L129.222 19.0662L129.222 19.0662Z"
       id="e"
       fill="#D3D3D3"
       fill-rule="evenodd"
       stroke="none" />
    <path
       d="M85.5403 16.3275L86.6268 16.3275L86.5481 34.9246C86.6268 36.2031 86.7731 36.3886 87.4018 37.0484L88.9118 38.4835C90.0405 39.5231 90.648 39.7575 92.2545 38.4835L93.5251 37.4294C93.9287 36.9517 94.9354 36.1198 94.7813 36.0709C94.2956 35.9365 94.2812 35.6077 94.3067 35.0035L94.3888 18.8556C94.6349 17.1717 97.2459 17.0395 97.4 18.7156L97.3357 34.9802C97.257 35.9443 97.6395 36.7885 98.4133 37.3083L100.423 38.9311C101.349 39.7741 101.813 39.5764 102.759 38.7856L104.85 37.115C105.068 36.8806 105.813 36.1509 105.635 36.0954C105.277 36.0054 105.16 35.4389 105.168 34.9802L105.243 18.91C105.396 17.0606 108.196 16.9262 108.351 18.8433L108.296 34.3326C108.129 35.36 108.596 36.1365 109.136 36.6563L110.824 38.4712C111.829 39.7741 112.602 39.8286 113.61 38.7323L115.795 37.115C116.096 36.8018 117.027 36.2042 117.495 35.8721C117.751 35.6744 116.645 35.9099 116.645 34.8469L116.72 16.5286C116.569 16.062 116.031 15.4167 115.18 14.7058L111.694 12.1189L107.488 15.4167C106.552 16.1953 105.781 16.1953 104.863 15.4167L100.835 12.1189L97.1029 15.2257C96.3245 16.0632 95.4708 16.1309 94.3888 15.2257L90.8321 12.3111L85.5403 16.3275L85.5403 16.3275Z"
       id="m"
       fill="#D3D3D3"
       fill-rule="evenodd"
       stroke="none" />
    <path
       d="M73.2842 3.88315L74.424 3.88315L74.3885 13.5955L73.3918 12.6847C73.3275 12.6236 72.6889 12.2937 72.1179 12.6236L64.9857 17.5464C63.5566 18.5127 62.9113 19.3613 63.0499 20.0733L63 32.367C63.0676 33.7909 63.632 34.7751 64.4114 35.487L69.0934 39.1114C69.9504 39.8234 70.7365 39.8234 71.4505 39.047L74.3043 36.319L77.6403 39.047C78.1293 39.8956 78.9863 39.95 80.0573 39.047L83.696 36.199L82.3434 36.3856L82.4654 5.17494C82.5363 4.32522 82.3257 3.88537 81.758 3.16561L77.9984 0L73.2842 3.88315L73.2842 3.88315ZM71.0236 18.2572C72.517 19.6146 74.0104 21.0374 74.4273 22.6558L74.384 33.7898C74.2299 35.5392 70.8917 33.2778 70.977 30.8219L71.0236 18.2572L71.0236 18.2572Z"
       id="path1"
       fill="#D3D3D3"
       fill-rule="evenodd"
       stroke="none" />
    <path
       d="M49.2505 3.75875L50.4501 3.75875L50.3392 35.0716C50.2616 36.5611 50.6108 37.1521 50.9678 37.3398L53.3105 39.2214C54.3028 40.3277 54.9425 39.9333 55.7319 39.0892L57.7165 37.6652C57.9737 37.4364 59.599 36.3434 59.038 36.5745C58.4094 36.8388 58.3529 36.1335 58.3739 35.6637L58.4925 4.98945C58.3529 4.15084 58.2109 3.75875 57.4315 2.91458L53.8815 0L49.2505 3.75875L49.2505 3.75875Z"
       id="path2"
       fill="#D3D3D3"
       fill-rule="evenodd"
       stroke="none" />
    <path
       d="M25.0573 21.6102C28.6239 18.569 32.1961 15.5245 35.7739 12.4833C36.2739 11.9701 36.9846 12.0256 37.6132 12.4833C39.8905 14.3726 42.313 16.2365 44.6457 18.0447C45.4994 18.7034 45.9916 19.6142 46.1302 20.7716L46.0914 30.2929C46.0914 31.3225 46.016 32.4921 45.1557 33.5251L38.0168 38.9778C37.1598 39.8141 36.4491 40.2029 35.3803 39.0333L27.86 33.0109C27.2247 32.4921 26.7314 31.7935 26.5207 30.2929C26.5307 27.3172 26.5429 24.3304 26.5562 21.6113C26.1959 21.3503 25.5528 21.6102 25.0573 21.6102L25.0573 21.6102ZM34.4379 18.9555C34.4279 21.217 34.4202 24.2038 34.4091 26.5941C34.6087 29.381 36.6941 31.287 38.1166 32.0523C38.202 29.4709 38.2164 25.5667 38.2241 22.9731C37.9425 21.4169 35.8493 20.0585 34.4379 18.9555L34.4379 18.9555Z"
       id="o"
       fill="#D3D3D3"
       fill-rule="evenodd"
       stroke="none" />
    <path
       d="M11.7101 0.372467C10.2134 1.64982 7.14229 4.38335 3.85723 7.29793C2.14318 8.59528 0.0688164 10.5302 0.0688164 12.2241L7.78198e-05 28.723C-0.00657408 31.3232 0.414729 32.0997 2.11769 33.3381C4.7464 35.3397 7.30305 37.2224 9.92068 39.2906C11.4817 40.5157 11.6347 40.0026 12.6991 38.8985L20.7704 32.1674C21.6207 31.521 21.6307 30.6113 21.5598 28.7219C21.5797 24.9098 21.5919 21.0922 21.6097 17.3335L12.3576 17.3335C11.7223 16.5548 8.86077 21.0322 10.3586 21.2233L13.2002 21.2233L13.086 31.7153C12.3831 31.0578 11.4496 30.4169 10.893 29.8382C9.32863 29.1206 8.97606 27.3046 8.8408 25.6218L8.90843 6.98137C8.91841 4.44333 15.0828 13.4614 20.1794 1.39546C20.9688 -0.287311 15.901 4.9676 12.9929 0.557962C12.9907 0.497981 12.6381 -0.537229 11.7101 0.372467L11.7101 0.372467Z"
       id="G"
       fill="#D3D3D3"
       fill-rule="evenodd"
       stroke="none" />
  </g>
</svg>
